<svg xmlns="http://www.w3.org/2000/svg" xmlns:xlink="http://www.w3.org/1999/xlink" width="500" zoomAndPan="magnify" viewBox="0 0 375 374.999991" height="500" preserveAspectRatio="xMidYMid meet" version="1.0"><defs><g/></defs><g fill="#db4a2b" fill-opacity="1"><g transform="translate(41.059213, 208.073686)"><g><path d="M 4.109375 -38.265625 L 35.046875 -38.265625 L 35.046875 -29.09375 L 16.40625 -29.09375 L 16.40625 -22.53125 L 32.421875 -22.53125 L 32.421875 -13.734375 L 16.40625 -13.734375 L 16.40625 0 L 4.109375 0 Z M 4.109375 -38.265625 "/></g></g></g><g fill="#db4a2b" fill-opacity="1"><g transform="translate(74.985247, 208.073686)"><g><path d="M 17.859375 -30.03125 C 22.347656 -30.03125 26 -29.28125 28.8125 -27.78125 C 31.632812 -26.28125 33.046875 -23.84375 33.046875 -20.46875 L 33.046875 -9.015625 C 33.046875 -8.378906 33.191406 -7.859375 33.484375 -7.453125 C 33.785156 -7.046875 34.234375 -6.84375 34.828125 -6.84375 L 36.828125 -6.84375 L 36.828125 -0.4375 C 36.710938 -0.363281 36.421875 -0.242188 35.953125 -0.078125 C 35.492188 0.0859375 34.835938 0.253906 33.984375 0.421875 C 33.128906 0.585938 32.144531 0.671875 31.03125 0.671875 C 28.882812 0.671875 27.113281 0.347656 25.71875 -0.296875 C 24.332031 -0.953125 23.378906 -1.851562 22.859375 -3 C 21.453125 -1.882812 19.875 -0.992188 18.125 -0.328125 C 16.382812 0.335938 14.347656 0.671875 12.015625 0.671875 C 5.117188 0.671875 1.671875 -2.070312 1.671875 -7.5625 C 1.671875 -10.414062 2.4375 -12.59375 3.96875 -14.09375 C 5.507812 -15.601562 7.726562 -16.632812 10.625 -17.1875 C 13.519531 -17.738281 17.300781 -18.015625 21.96875 -18.015625 L 21.96875 -19.46875 C 21.96875 -20.613281 21.566406 -21.484375 20.765625 -22.078125 C 19.972656 -22.671875 18.945312 -22.96875 17.6875 -22.96875 C 16.539062 -22.96875 15.550781 -22.765625 14.71875 -22.359375 C 13.882812 -21.953125 13.46875 -21.304688 13.46875 -20.421875 L 13.46875 -20.1875 L 2.5625 -20.1875 C 2.519531 -20.375 2.5 -20.632812 2.5 -20.96875 C 2.5 -23.75 3.820312 -25.953125 6.46875 -27.578125 C 9.125 -29.210938 12.921875 -30.03125 17.859375 -30.03125 Z M 21.96875 -12.796875 C 18.820312 -12.796875 16.492188 -12.453125 14.984375 -11.765625 C 13.484375 -11.078125 12.734375 -10.160156 12.734375 -9.015625 C 12.734375 -7.160156 13.992188 -6.234375 16.515625 -6.234375 C 17.960938 -6.234375 19.234375 -6.617188 20.328125 -7.390625 C 21.421875 -8.171875 21.96875 -9.140625 21.96875 -10.296875 Z M 21.96875 -12.796875 "/></g></g></g><g fill="#db4a2b" fill-opacity="1"><g transform="translate(108.911281, 208.073686)"><g><path d="M 21.1875 -30.09375 C 22.039062 -30.09375 22.800781 -29.988281 23.46875 -29.78125 C 24.132812 -29.582031 24.46875 -29.460938 24.46875 -29.421875 L 24.46875 -20.140625 L 20.921875 -20.140625 C 18.617188 -20.140625 16.957031 -19.546875 15.9375 -18.359375 C 14.914062 -17.171875 14.40625 -15.410156 14.40625 -13.078125 L 14.40625 0 L 3.34375 0 L 3.34375 -29.375 L 12.40625 -29.375 L 13.125 -24.921875 C 13.789062 -26.628906 14.847656 -27.914062 16.296875 -28.78125 C 17.742188 -29.65625 19.375 -30.09375 21.1875 -30.09375 Z M 21.1875 -30.09375 "/></g></g></g><g fill="#db4a2b" fill-opacity="1"><g transform="translate(130.434681, 208.073686)"><g><path d="M 16.796875 -7.515625 L 29.765625 -7.515625 L 29.765625 0 L 1.109375 0 L 1.109375 -3.609375 L 13.46875 -21.859375 L 1.78125 -21.859375 L 1.78125 -29.375 L 29.265625 -29.375 L 29.265625 -25.921875 Z M 16.796875 -7.515625 "/></g></g></g><g fill="#db4a2b" fill-opacity="1"><g transform="translate(158.187208, 208.073686)"><g><path d="M 17.859375 -30.03125 C 22.347656 -30.03125 26 -29.28125 28.8125 -27.78125 C 31.632812 -26.28125 33.046875 -23.84375 33.046875 -20.46875 L 33.046875 -9.015625 C 33.046875 -8.378906 33.191406 -7.859375 33.484375 -7.453125 C 33.785156 -7.046875 34.234375 -6.84375 34.828125 -6.84375 L 36.828125 -6.84375 L 36.828125 -0.4375 C 36.710938 -0.363281 36.421875 -0.242188 35.953125 -0.078125 C 35.492188 0.0859375 34.835938 0.253906 33.984375 0.421875 C 33.128906 0.585938 32.144531 0.671875 31.03125 0.671875 C 28.882812 0.671875 27.113281 0.347656 25.71875 -0.296875 C 24.332031 -0.953125 23.378906 -1.851562 22.859375 -3 C 21.453125 -1.882812 19.875 -0.992188 18.125 -0.328125 C 16.382812 0.335938 14.347656 0.671875 12.015625 0.671875 C 5.117188 0.671875 1.671875 -2.070312 1.671875 -7.5625 C 1.671875 -10.414062 2.4375 -12.59375 3.96875 -14.09375 C 5.507812 -15.601562 7.726562 -16.632812 10.625 -17.1875 C 13.519531 -17.738281 17.300781 -18.015625 21.96875 -18.015625 L 21.96875 -19.46875 C 21.96875 -20.613281 21.566406 -21.484375 20.765625 -22.078125 C 19.972656 -22.671875 18.945312 -22.96875 17.6875 -22.96875 C 16.539062 -22.96875 15.550781 -22.765625 14.71875 -22.359375 C 13.882812 -21.953125 13.46875 -21.304688 13.46875 -20.421875 L 13.46875 -20.1875 L 2.5625 -20.1875 C 2.519531 -20.375 2.5 -20.632812 2.5 -20.96875 C 2.5 -23.75 3.820312 -25.953125 6.46875 -27.578125 C 9.125 -29.210938 12.921875 -30.03125 17.859375 -30.03125 Z M 21.96875 -12.796875 C 18.820312 -12.796875 16.492188 -12.453125 14.984375 -11.765625 C 13.484375 -11.078125 12.734375 -10.160156 12.734375 -9.015625 C 12.734375 -7.160156 13.992188 -6.234375 16.515625 -6.234375 C 17.960938 -6.234375 19.234375 -6.617188 20.328125 -7.390625 C 21.421875 -8.171875 21.96875 -9.140625 21.96875 -10.296875 Z M 21.96875 -12.796875 "/></g></g></g><g fill="#db4a2b" fill-opacity="1"><g transform="translate(192.113239, 208.073686)"><g><path d="M 23.578125 -30.03125 C 26.992188 -30.03125 29.550781 -29.082031 31.25 -27.1875 C 32.957031 -25.300781 33.8125 -22.582031 33.8125 -19.03125 L 33.8125 0 L 22.75 0 L 22.75 -17.6875 C 22.75 -18.945312 22.421875 -19.957031 21.765625 -20.71875 C 21.117188 -21.476562 20.207031 -21.859375 19.03125 -21.859375 C 17.65625 -21.859375 16.539062 -21.410156 15.6875 -20.515625 C 14.832031 -19.628906 14.40625 -18.539062 14.40625 -17.25 L 14.40625 0 L 3.34375 0 L 3.34375 -29.375 L 12.40625 -29.375 L 13.125 -24.921875 C 14.28125 -26.472656 15.789062 -27.710938 17.65625 -28.640625 C 19.53125 -29.566406 21.503906 -30.03125 23.578125 -30.03125 Z M 23.578125 -30.03125 "/></g></g></g><g fill="#db4a2b" fill-opacity="1"><g transform="translate(226.03927, 208.073686)"><g><path d="M 17.859375 -30.03125 C 22.347656 -30.03125 26 -29.28125 28.8125 -27.78125 C 31.632812 -26.28125 33.046875 -23.84375 33.046875 -20.46875 L 33.046875 -9.015625 C 33.046875 -8.378906 33.191406 -7.859375 33.484375 -7.453125 C 33.785156 -7.046875 34.234375 -6.84375 34.828125 -6.84375 L 36.828125 -6.84375 L 36.828125 -0.4375 C 36.710938 -0.363281 36.421875 -0.242188 35.953125 -0.078125 C 35.492188 0.0859375 34.835938 0.253906 33.984375 0.421875 C 33.128906 0.585938 32.144531 0.671875 31.03125 0.671875 C 28.882812 0.671875 27.113281 0.347656 25.71875 -0.296875 C 24.332031 -0.953125 23.378906 -1.851562 22.859375 -3 C 21.453125 -1.882812 19.875 -0.992188 18.125 -0.328125 C 16.382812 0.335938 14.347656 0.671875 12.015625 0.671875 C 5.117188 0.671875 1.671875 -2.070312 1.671875 -7.5625 C 1.671875 -10.414062 2.4375 -12.59375 3.96875 -14.09375 C 5.507812 -15.601562 7.726562 -16.632812 10.625 -17.1875 C 13.519531 -17.738281 17.300781 -18.015625 21.96875 -18.015625 L 21.96875 -19.46875 C 21.96875 -20.613281 21.566406 -21.484375 20.765625 -22.078125 C 19.972656 -22.671875 18.945312 -22.96875 17.6875 -22.96875 C 16.539062 -22.96875 15.550781 -22.765625 14.71875 -22.359375 C 13.882812 -21.953125 13.46875 -21.304688 13.46875 -20.421875 L 13.46875 -20.1875 L 2.5625 -20.1875 C 2.519531 -20.375 2.5 -20.632812 2.5 -20.96875 C 2.5 -23.75 3.820312 -25.953125 6.46875 -27.578125 C 9.125 -29.210938 12.921875 -30.03125 17.859375 -30.03125 Z M 21.96875 -12.796875 C 18.820312 -12.796875 16.492188 -12.453125 14.984375 -11.765625 C 13.484375 -11.078125 12.734375 -10.160156 12.734375 -9.015625 C 12.734375 -7.160156 13.992188 -6.234375 16.515625 -6.234375 C 17.960938 -6.234375 19.234375 -6.617188 20.328125 -7.390625 C 21.421875 -8.171875 21.96875 -9.140625 21.96875 -10.296875 Z M 21.96875 -12.796875 "/></g></g></g><g fill="#db4a2b" fill-opacity="1"><g transform="translate(259.965312, 208.073686)"><g/></g></g><g fill="#db4a2b" fill-opacity="1"><g transform="translate(275.315203, 208.073686)"><g><path d="M 22.359375 -38.9375 C 28.035156 -38.9375 32.519531 -37.515625 35.8125 -34.671875 C 39.113281 -31.835938 40.765625 -27.789062 40.765625 -22.53125 L 29.03125 -22.53125 C 29.03125 -24.75 28.445312 -26.507812 27.28125 -27.8125 C 26.113281 -29.113281 24.457031 -29.765625 22.3125 -29.765625 C 19.820312 -29.765625 17.992188 -28.984375 16.828125 -27.421875 C 15.660156 -25.867188 15.078125 -23.703125 15.078125 -20.921875 L 15.078125 -17.359375 C 15.078125 -14.609375 15.660156 -12.445312 16.828125 -10.875 C 17.992188 -9.300781 19.78125 -8.515625 22.1875 -8.515625 C 24.5625 -8.515625 26.359375 -9.125 27.578125 -10.34375 C 28.804688 -11.570312 29.421875 -13.296875 29.421875 -15.515625 L 40.765625 -15.515625 C 40.765625 -10.285156 39.160156 -6.28125 35.953125 -3.5 C 32.753906 -0.71875 28.222656 0.671875 22.359375 0.671875 C 15.835938 0.671875 10.894531 -0.992188 7.53125 -4.328125 C 4.175781 -7.671875 2.5 -12.609375 2.5 -19.140625 C 2.5 -25.660156 4.175781 -30.585938 7.53125 -33.921875 C 10.894531 -37.265625 15.835938 -38.9375 22.359375 -38.9375 Z M 22.359375 -38.9375 "/></g></g></g><g fill="#db4a2b" fill-opacity="1"><g transform="translate(315.414748, 208.073686)"><g><path d="M 3.390625 0 L 3.390625 -11.0625 L 15.1875 -11.0625 L 15.1875 0 Z M 3.390625 0 "/></g></g></g></svg>